<svg width="22" height="17" viewBox="0 0 22 17" fill="none" xmlns="http://www.w3.org/2000/svg">
<defs>
<linearGradient id="paint0_linear_2539_13038" x1="0.653979" y1="12.1011" x2="20.2734" y2="12.1011" gradientUnits="userSpaceOnUse">
<stop stop-color="#967CFD"/>
<stop offset="1" stop-color="#532D6A"/>
</linearGradient>
</defs>
<path d="M17.82 1.18652C18.8191 2.11821 19.6167 3.24472 20.1636 4.49657C20.7105 5.74842 20.9952 7.09905 20.9999 8.46515C21.0047 9.83125 20.7295 11.1838 20.1914 12.4395C19.6532 13.6951 18.8635 14.8272 17.8709 15.7658M15.092 4.11194C15.6915 4.67095 16.17 5.34686 16.4982 6.09797C16.8263 6.84908 16.9971 7.65946 17 8.47912C17.0028 9.29877 16.8377 10.1103 16.5148 10.8637C16.1919 11.6171 15.7181 12.2963 15.1225 12.8595M6.4803 11.9069L8.15553 13.98C9.02883 15.0607 9.46547 15.6011 9.84803 15.6599C10.1792 15.7108 10.5138 15.5925 10.7394 15.3448C11 15.0586 11 14.3638 11 12.9744V4.02572C11 2.63627 11 1.94155 10.7394 1.65536C10.5138 1.40761 10.1792 1.28929 9.84803 1.34021C9.46547 1.39904 9.02883 1.93939 8.15553 3.02009L6.4803 5.09319C6.30388 5.31151 6.21567 5.42067 6.10652 5.49922C6.00982 5.56881 5.90147 5.62056 5.78656 5.65204C5.65687 5.68756 5.51652 5.68756 5.23583 5.68756H3.8125C3.0563 5.68756 2.6782 5.68756 2.37264 5.7885C1.77131 5.98716 1.2996 6.45887 1.10094 7.0602C1 7.36576 1 7.74386 1 8.50006C1 9.25626 1 9.63436 1.10094 9.93992C1.2996 10.5413 1.77131 11.013 2.37264 11.2116C2.6782 11.3126 3.0563 11.3126 3.8125 11.3126H5.23583C5.51652 11.3126 5.65687 11.3126 5.78656 11.3481C5.90147 11.3796 6.00982 11.4313 6.10652 11.5009C6.21567 11.5794 6.30388 11.6886 6.4803 11.9069Z" stroke="url(#paint0_linear_2539_13038)" stroke-width="2" stroke-linecap="round" stroke-linejoin="round"/>
</svg>
