<svg width="30" height="30" viewBox="0 0 30 30" fill="none" xmlns="http://www.w3.org/2000/svg">
<defs>
<linearGradient id="paint0_linear_2541_16645" x1="-0.519031" y1="22.4592" x2="28.91" y2="22.4592" gradientUnits="userSpaceOnUse">
<stop stop-color="#967CFD"/>
<stop offset="1" stop-color="#3177FF"/>
</linearGradient>
<linearGradient id="paint1_linear_2541_16645" x1="-0.519031" y1="22.4592" x2="28.91" y2="22.4592" gradientUnits="userSpaceOnUse">
<stop stop-color="#967CFD"/>
<stop offset="1" stop-color="#3177FF"/>
</linearGradient>
<linearGradient id="paint2_linear_2541_16645" x1="25.35" y1="16.25" x2="4.35" y2="16.25" gradientUnits="userSpaceOnUse">
<stop stop-color="#2FEA9B"/>
<stop offset="1" stop-color="#7FDD53"/>
</linearGradient>
<linearGradient id="paint3_linear_2541_16645" x1="-0.242214" y1="10.481" x2="13.4913" y2="10.481" gradientUnits="userSpaceOnUse">
<stop stop-color="#967CFD"/>
<stop offset="1" stop-color="#3177FF"/>
</linearGradient>
<linearGradient id="paint4_linear_2541_16645" x1="-0.242214" y1="10.481" x2="13.4913" y2="10.481" gradientUnits="userSpaceOnUse">
<stop stop-color="#967CFD"/>
<stop offset="1" stop-color="#3177FF"/>
</linearGradient>
</defs>
<path d="M13.9978 25.4759V30C6.49389 29.5061 0.493911 23.5061 0 16.0022H4.52409C4.99759 21.0139 8.98606 25.0024 13.9978 25.4759ZM30 16.0022C29.5061 23.5061 23.5061 29.5061 16.0022 30V25.4759C21.0139 25.0024 25.0024 21.0139 25.4759 16.0022H30ZM30 13.9978C29.5061 6.49389 23.5061 0.493911 16.0022 0V4.52409C21.0139 4.99759 25.0024 8.98606 25.4759 13.9978H30ZM13.9978 0V4.52409C8.98606 4.99759 4.99759 8.98606 4.52409 13.9978H0C0.493911 6.49389 6.49389 0.493912 13.9978 0Z" fill="url(#paint0_linear_2541_16645)" fill-opacity="0.3"/>
<path d="M13.9978 25.4759V30C6.49389 29.5061 0.493911 23.5061 0 16.0022H4.52409C4.99759 21.0139 8.98606 25.0024 13.9978 25.4759ZM30 16.0022C29.5061 23.5061 23.5061 29.5061 16.0022 30V25.4759C21.0139 25.0024 25.0024 21.0139 25.4759 16.0022H30ZM30 13.9978C29.5061 6.49389 23.5061 0.493911 16.0022 0V4.52409C21.0139 4.99759 25.0024 8.98606 25.4759 13.9978H30ZM13.9978 0V4.52409C8.98606 4.99759 4.99759 8.98606 4.52409 13.9978H0C0.493911 6.49389 6.49389 0.493912 13.9978 0Z" stroke="url(#paint1_linear_2541_16645)"/>
<mask id="mask0_2541_16645" style="mask-type:alpha" maskUnits="userSpaceOnUse" x="0" y="0" width="30" height="30">
<path fill-rule="evenodd" clip-rule="evenodd" d="M13.9978 25.4759V30C6.49389 29.5061 0.493911 23.5061 0 16.0022H4.52409C4.99759 21.0139 8.98606 25.0024 13.9978 25.4759ZM30 16.0022C29.5061 23.5061 23.5061 29.5061 16.0022 30V25.4759C21.0139 25.0024 25.0024 21.0139 25.4759 16.0022H30ZM30 13.9978C29.5061 6.49389 23.5061 0.493911 16.0022 0V4.52409C21.0139 4.99759 25.0024 8.98606 25.4759 13.9978H30ZM13.9978 9.85632e-08V4.52409C8.98606 4.99759 4.99759 8.98606 4.52409 13.9978H0C0.493911 6.49389 6.49389 0.493912 13.9978 9.85632e-08Z" fill="url(#paint2_linear_2541_16645)"/>
</mask>
<g mask="url(#mask0_2541_16645)">
<rect width="14" height="14" fill="url(#paint3_linear_2541_16645)"/>
<rect width="14" height="14" transform="matrix(-1 0 0 1 30 0)" fill="url(#paint4_linear_2541_16645)"/>
</g>
</svg>
