<svg width="116" height="53" viewBox="0 0 116 53" fill="none" xmlns="http://www.w3.org/2000/svg">
<rect x="0.828125" y="0.828125" width="114.281" height="51.3438" rx="25.6719" fill="#F8F7F3" fill-opacity="0.0" stroke="url(#paint0_linear_1_5)" stroke-width="1.65625"/>
<circle cx="19.875" cy="19.875" r="19.875" transform="matrix(-1 0 0 1 46.375 6.625)" fill="url(#paint1_linear_1_5)"/>
<path d="M35.5847 25.4823C35.5534 25.3496 35.4897 25.2267 35.3994 25.1245C35.3091 25.0222 35.195 24.9439 35.0671 24.8964L29.1036 22.6595L30.6211 15.0686C30.6555 14.8923 30.6316 14.7095 30.5529 14.5479C30.4743 14.3864 30.3453 14.2548 30.1853 14.173C30.0253 14.0911 29.8431 14.0636 29.6661 14.0945C29.489 14.1253 29.3269 14.2129 29.204 14.344L17.6103 26.7659C17.5161 26.8651 17.448 26.9861 17.412 27.1181C17.376 27.2501 17.3733 27.3889 17.404 27.5222C17.4348 27.6555 17.4981 27.7791 17.5883 27.8819C17.6784 27.9848 17.7927 28.0637 17.9208 28.1116L23.8864 30.3486L22.373 37.9311C22.3386 38.1075 22.3626 38.2902 22.4412 38.4518C22.5198 38.6134 22.6489 38.745 22.8088 38.8268C22.9688 38.9086 23.1511 38.9362 23.3281 38.9053C23.5051 38.8744 23.6673 38.7868 23.7901 38.6557L35.3839 26.2338C35.4764 26.1346 35.543 26.0142 35.578 25.8831C35.6131 25.7521 35.6153 25.6145 35.5847 25.4823Z" fill="white"/>
<path d="M98.1369 26.5C98.137 28.2199 97.6271 29.9012 96.6717 31.3312C95.7162 32.7613 94.3582 33.8759 92.7692 34.534C91.1803 35.1922 89.4318 35.3644 87.745 35.0288C86.0582 34.6933 84.5088 33.865 83.2927 32.6489L83.2415 32.5945L73.9329 22.0825C73.0614 21.2212 71.9546 20.6369 70.7518 20.4031C69.549 20.1694 68.3039 20.2966 67.1733 20.7689C66.0426 21.2411 65.0769 22.0372 64.3977 23.057C63.7184 24.0768 63.356 25.2747 63.356 26.5C63.356 27.7253 63.7184 28.9232 64.3977 29.943C65.0769 30.9628 66.0426 31.7589 67.1733 32.2312C68.3039 32.7034 69.549 32.8306 70.7518 32.5969C71.9546 32.3632 73.0614 31.7789 73.9329 30.9175L75.2558 29.4238C75.4743 29.1767 75.7819 29.0266 76.1111 29.0063C76.4403 28.9861 76.7641 29.0974 77.0112 29.3159C77.2583 29.5344 77.4084 29.842 77.4287 30.1712C77.4489 30.5004 77.3375 30.8242 77.1191 31.0713L75.7698 32.5945L75.7185 32.6489C74.5024 33.8648 72.9531 34.6929 71.2664 35.0283C69.5797 35.3638 67.8314 35.1915 66.2426 34.5334C64.6537 33.8752 63.2958 32.7607 62.3404 31.3308C61.3849 29.9009 60.875 28.2198 60.875 26.5C60.875 24.7803 61.3849 23.0992 62.3404 21.6693C63.2958 20.2393 64.6537 19.1248 66.2426 18.4667C67.8314 17.8085 69.5797 17.6363 71.2664 17.9717C72.9531 18.3072 74.5024 19.1352 75.7185 20.3512L75.7698 20.4055L85.0784 30.9175C85.9499 31.7789 87.0567 32.3632 88.2595 32.5969C89.4623 32.8306 90.7073 32.7034 91.838 32.2312C92.9686 31.7589 93.9343 30.9628 94.6136 29.943C95.2928 28.9232 95.6552 27.7253 95.6552 26.5C95.6552 25.2747 95.2928 24.0768 94.6136 23.057C93.9343 22.0372 92.9686 21.2411 91.838 20.7689C90.7073 20.2966 89.4623 20.1694 88.2595 20.4031C87.0567 20.6369 85.9499 21.2212 85.0784 22.0825L83.7555 23.5762C83.537 23.8233 83.2293 23.9735 82.9001 23.9937C82.5709 24.014 82.2472 23.9026 82.0001 23.6841C81.753 23.4657 81.6028 23.158 81.5826 22.8288C81.5624 22.4996 81.6737 22.1759 81.8922 21.9288L83.2415 20.4055L83.2927 20.3512C84.5088 19.135 86.0582 18.3068 87.745 17.9712C89.4318 17.6356 91.1803 17.8078 92.7692 18.466C94.3582 19.1242 95.7162 20.2388 96.6717 21.6688C97.6271 23.0989 98.137 24.7802 98.1369 26.5Z" fill="url(#paint2_linear_1_5)"/>
<defs>
<linearGradient id="paint0_linear_1_5" x1="-2.00584" y1="39.6779" x2="111.725" y2="39.6779" gradientUnits="userSpaceOnUse">
<stop stop-color="#967CFD"/>
<stop offset="1" stop-color="#3177FF"/>
</linearGradient>
<linearGradient id="paint1_linear_1_5" x1="-0.687716" y1="29.7584" x2="38.3058" y2="29.7584" gradientUnits="userSpaceOnUse">
<stop stop-color="#967CFD"/>
<stop offset="1" stop-color="#3177FF"/>
</linearGradient>
<linearGradient id="paint2_linear_1_5" x1="60.2303" y1="30.8243" x2="96.7831" y2="30.8243" gradientUnits="userSpaceOnUse">
<stop stop-color="#967CFD"/>
<stop offset="1" stop-color="#3177FF"/>
</linearGradient>
</defs>
</svg>
