<svg width="11" height="11" viewBox="0 0 11 11" fill="none" xmlns="http://www.w3.org/2000/svg">
<path d="M5.5 7.91667C5.59445 7.91667 5.67362 7.88473 5.73751 7.82084C5.80139 7.75695 5.83333 7.67778 5.83333 7.58333C5.83333 7.48889 5.80139 7.40973 5.73751 7.34584C5.67362 7.28195 5.59445 7.25 5.5 7.25C5.40555 7.25 5.32638 7.28195 5.26249 7.34584C5.19861 7.40973 5.16667 7.48889 5.16667 7.58333C5.16667 7.67778 5.19861 7.75695 5.26249 7.82084C5.32638 7.88473 5.40555 7.91667 5.5 7.91667ZM5.22917 6.125H5.77083V2.875H5.22917V6.125ZM5.50181 10.375C4.82768 10.375 4.19389 10.2471 3.60043 9.99124C3.00697 9.7354 2.49074 9.38818 2.05174 8.94959C1.61274 8.511 1.2652 7.99526 1.00912 7.40236C0.753041 6.80945 0.625 6.17594 0.625 5.50181C0.625 4.82768 0.752919 4.19389 1.00876 3.60043C1.2646 3.00697 1.61182 2.49074 2.05041 2.05174C2.489 1.61274 3.00474 1.26521 3.59764 1.00912C4.19055 0.753041 4.82406 0.625 5.49819 0.625C6.17232 0.625 6.80611 0.752919 7.39957 1.00876C7.99303 1.2646 8.50926 1.61182 8.94826 2.05041C9.38726 2.489 9.7348 3.00474 9.99088 3.59764C10.247 4.19055 10.375 4.82406 10.375 5.49819C10.375 6.17232 10.2471 6.80611 9.99124 7.39957C9.7354 7.99303 9.38818 8.50926 8.94959 8.94826C8.511 9.38726 7.99526 9.7348 7.40236 9.99088C6.80945 10.247 6.17594 10.375 5.50181 10.375ZM5.5 9.83333C6.70972 9.83333 7.73438 9.41354 8.57396 8.57396C9.41354 7.73438 9.83333 6.70972 9.83333 5.5C9.83333 4.29028 9.41354 3.26563 8.57396 2.42604C7.73438 1.58646 6.70972 1.16667 5.5 1.16667C4.29028 1.16667 3.26563 1.58646 2.42604 2.42604C1.58646 3.26563 1.16667 4.29028 1.16667 5.5C1.16667 6.70972 1.58646 7.73438 2.42604 8.57396C3.26563 9.41354 4.29028 9.83333 5.5 9.83333Z" fill="#E30000" fill-opacity="0.65" stroke="#E30000" stroke-opacity="0.65" stroke-width="0.5"/>
</svg>
