<svg width="19" height="22" viewBox="0 0 19 22" fill="none" xmlns="http://www.w3.org/2000/svg">
<path d="M12 16.5V17.5C12 19.1569 10.6569 20.5 9 20.5C7.34315 20.5 6 19.1569 6 17.5V16.5001M12 16.5L6 16.5001M12 16.5H16C16.5523 16.5 17 16.0523 17 15.5V14.9141C17 14.6489 16.8945 14.3946 16.707 14.207L16.1963 13.6963C16.0706 13.5706 16 13.4 16 13.2222V9.5C16 9.32357 15.9936 9.14855 15.9805 8.9761M6 16.5001L2 16.5001C1.44772 16.5001 1 16.0521 1 15.4998V14.9141C1 14.6489 1.10544 14.3949 1.29297 14.2073L1.80371 13.6958C1.92939 13.5701 2 13.4002 2 13.2224V9.49998C2 5.63401 5.134 2.5 9 2.5C9.71161 2.5 10.3984 2.60618 11.0454 2.80357M15.9805 8.9761C17.1868 8.2873 18 6.98861 18 5.5C18 3.29086 16.2091 1.5 14 1.5C12.8298 1.5 11.7769 2.00253 11.0454 2.80357M15.9805 8.9761C15.3966 9.30949 14.7205 9.5 14 9.5C11.7909 9.5 10 7.70914 10 5.5C10 4.4611 10.3961 3.5147 11.0454 2.80357M15.9805 8.9761C15.9805 8.97609 15.9805 8.9761 15.9805 8.9761ZM11.0454 2.80357C11.0459 2.80371 11.0464 2.80385 11.0468 2.804" stroke="#532D6A" stroke-opacity="0.6" stroke-width="2" stroke-linecap="round" stroke-linejoin="round"/>
</svg>
