<svg width="22" height="22" viewBox="0 0 22 22" fill="none" xmlns="http://www.w3.org/2000/svg">
<path d="M2.65005 7.92293L3.01627 7.7192C3.07314 7.68756 3.10111 7.67169 3.12858 7.65524C3.40166 7.49165 3.63184 7.26564 3.79981 6.99523C3.81671 6.96802 3.83263 6.93949 3.86521 6.8831C3.89774 6.82677 3.91423 6.79823 3.92936 6.76998C4.08003 6.48866 4.16153 6.17515 4.16641 5.85606C4.1669 5.82398 4.16678 5.79121 4.16569 5.72604L4.15853 5.30078C4.14708 4.62025 4.14134 4.27894 4.23697 3.97262C4.32192 3.70053 4.46404 3.44993 4.65382 3.23725C4.86834 2.99685 5.16527 2.82534 5.75976 2.48276L6.25358 2.1982C6.84642 1.85658 7.14294 1.68571 7.45768 1.62057C7.73612 1.56294 8.02347 1.56561 8.30092 1.62789C8.61405 1.69819 8.90686 1.87351 9.49213 2.22396L9.49545 2.22555L9.84928 2.43741C9.90523 2.47091 9.93355 2.48779 9.96158 2.50338C10.2399 2.6581 10.5505 2.74365 10.8688 2.75387C10.9008 2.7549 10.9335 2.7549 10.9987 2.7549C11.0635 2.7549 11.0976 2.7549 11.1296 2.75387C11.4485 2.74361 11.7598 2.65759 12.0385 2.50224C12.0666 2.48658 12.0944 2.46956 12.1504 2.4359L12.5065 2.22213C13.0958 1.86836 13.3909 1.69121 13.7057 1.62057C13.9843 1.55807 14.2726 1.55634 14.5521 1.61471C14.8676 1.68062 15.1642 1.85276 15.7574 2.19703L15.7601 2.1982L16.2477 2.48124L16.2531 2.48454C16.841 2.82572 17.1356 2.99672 17.3483 3.23614C17.5371 3.4486 17.6782 3.69881 17.7626 3.97018C17.8581 4.27691 17.853 4.61896 17.8415 5.3027L17.8343 5.72736C17.8332 5.79166 17.8314 5.82362 17.8318 5.85525C17.8366 6.17499 17.9191 6.48914 18.0703 6.77096C18.0852 6.79883 18.1013 6.8267 18.1335 6.88237C18.1656 6.93809 18.1812 6.96579 18.1979 6.99268C18.3666 7.26452 18.5979 7.49186 18.8727 7.65572C18.8999 7.67193 18.9285 7.68752 18.9848 7.71871L19.3464 7.91908C19.9479 8.25245 20.2486 8.41928 20.4674 8.65669C20.661 8.86672 20.8072 9.11585 20.8965 9.38717C20.9974 9.69387 20.9973 10.0378 20.9958 10.7255L20.9945 11.2877C20.9929 11.9708 20.9908 12.3122 20.8897 12.6168C20.8002 12.8863 20.6551 13.134 20.4626 13.3427C20.245 13.5787 19.9473 13.7445 19.3503 14.0766L18.9919 14.276C18.9309 14.3099 18.9002 14.3266 18.8708 14.3444C18.5985 14.5083 18.3691 14.735 18.2018 15.0053C18.1837 15.0345 18.1664 15.0648 18.1317 15.1255C18.0974 15.1853 18.0799 15.2152 18.0641 15.2452C17.9174 15.5229 17.8389 15.8315 17.8335 16.1455C17.8329 16.1794 17.8334 16.2137 17.8346 16.2827L17.8415 16.6902C17.853 17.3763 17.8581 17.7197 17.7621 18.0273C17.6771 18.2994 17.5352 18.55 17.3454 18.7627C17.1308 19.0031 16.8334 19.1745 16.2389 19.5171L15.7452 19.8015C15.1524 20.1432 14.8561 20.3138 14.5413 20.379C14.2629 20.4366 13.9754 20.4344 13.6979 20.3721C13.3843 20.3017 13.0905 20.1258 12.5036 19.7743L12.1498 19.5625C12.0938 19.5289 12.0654 19.5121 12.0374 19.4965C11.7591 19.3418 11.4488 19.2558 11.1305 19.2456C11.0985 19.2446 11.0658 19.2446 11.0006 19.2446C10.9352 19.2446 10.9026 19.2446 10.8705 19.2456C10.5516 19.2559 10.2393 19.3422 9.96061 19.4975C9.93609 19.5112 9.91151 19.526 9.86837 19.5519L9.49223 19.7777C8.90287 20.1315 8.60843 20.3081 8.29353 20.3788C8.01496 20.4413 7.7264 20.4438 7.44694 20.3855C7.13148 20.3196 6.83428 20.1471 6.24143 19.803L5.74644 19.5157C5.15822 19.1743 4.86326 19.0031 4.65048 18.7636C4.46172 18.5512 4.32045 18.3011 4.236 18.0297C4.14124 17.7252 4.14695 17.3858 4.15829 16.7119L4.16569 16.2724C4.16677 16.2081 4.16689 16.1761 4.16642 16.1445C4.16169 15.8247 4.08047 15.5104 3.92936 15.2286C3.91444 15.2007 3.89821 15.1726 3.86615 15.1171C3.83398 15.0615 3.81732 15.0337 3.80064 15.0068C3.63191 14.7349 3.40045 14.5074 3.12565 14.3435C3.09879 14.3275 3.07115 14.3122 3.0162 14.2818L3.01432 14.2809L2.65275 14.0805C2.05119 13.7472 1.74989 13.5801 1.53108 13.3427C1.33751 13.1327 1.19147 12.8839 1.10221 12.6126C1.0019 12.3077 1.00268 11.9658 1.00422 11.2861L1.00553 10.7119C1.00708 10.0287 1.00792 9.6874 1.10905 9.38277C1.19851 9.11328 1.34449 8.86561 1.53698 8.65685C1.75434 8.42111 2.05247 8.25526 2.64833 7.92378L2.65005 7.92293Z" stroke="#532D6A" stroke-opacity="0.45" stroke-width="2" stroke-linecap="round" stroke-linejoin="round"/>
<path d="M14.9997 11C14.9997 13.2091 13.2088 15 10.9997 15C8.79053 15 6.99967 13.2091 6.99967 11C6.99967 8.79082 8.79053 6.99996 10.9997 6.99996C13.2088 6.99996 14.9997 8.79082 14.9997 11Z" stroke="#532D6A" stroke-opacity="0.45" stroke-width="2" stroke-linecap="round" stroke-linejoin="round"/>
</svg>
