<svg width="34" height="36" viewBox="0 0 34 36" fill="none" xmlns="http://www.w3.org/2000/svg">
<path d="M2.41675 29.1118V6.88955C2.41675 5.05712 2.41675 4.13989 2.80236 3.59772C3.13891 3.12452 3.65766 2.81384 4.23356 2.73956C4.89317 2.65449 5.70218 3.08595 7.31787 3.94765L28.1512 15.0588L28.1588 15.0621C29.9443 16.0144 30.8375 16.4908 31.1305 17.1257C31.3861 17.6796 31.3861 18.3189 31.1305 18.8728C30.8371 19.5086 29.9418 19.9869 28.1512 20.9419L7.31787 32.053C5.70102 32.9153 4.89341 33.3451 4.23356 33.26C3.65766 33.1857 3.13891 32.8751 2.80236 32.4019C2.41675 31.8597 2.41675 30.9442 2.41675 29.1118Z" fill="#532D6A" stroke="#532D6A" stroke-width="4.02778" stroke-linecap="round" stroke-linejoin="round"/>
</svg>
