<svg width="38" height="28" viewBox="0 0 38 28" fill="none" xmlns="http://www.w3.org/2000/svg">
<path d="M30.3673 1.81079C32.0325 3.3636 33.3618 5.24112 34.2734 7.32753C35.1849 9.41395 35.6593 11.665 35.6672 13.9418C35.6752 16.2187 35.2165 18.473 34.3196 20.5657C33.4226 22.6584 32.1064 24.5452 30.4521 26.1096M25.8206 6.68648C26.8197 7.61817 27.6174 8.74468 28.1643 9.99653C28.7112 11.2484 28.9958 12.599 29.0006 13.9651C29.0054 15.3312 28.7302 16.6838 28.192 17.9394C27.6538 19.1951 26.8641 20.3271 25.8715 21.2658M11.4678 19.6781L14.2599 23.1333C15.7154 24.9345 16.4431 25.8351 17.0807 25.9331C17.6326 26.018 18.1904 25.8208 18.5664 25.4079C19.0007 24.9309 19.0007 23.773 19.0007 21.4572V6.54279C19.0007 4.22704 19.0007 3.06917 18.5664 2.59218C18.1904 2.17927 17.6326 1.98208 17.0807 2.06694C16.4431 2.16498 15.7154 3.06556 14.2599 4.86673L11.4678 8.3219C11.1738 8.68577 11.0268 8.86771 10.8448 8.99862C10.6837 9.11461 10.5031 9.20086 10.3116 9.25331C10.0954 9.31252 9.86152 9.31252 9.3937 9.31252H7.02148C5.76115 9.31252 5.13098 9.31252 4.62171 9.48076C3.6195 9.81184 2.83331 10.598 2.50222 11.6002C2.33398 12.1095 2.33398 12.7397 2.33398 14C2.33398 15.2604 2.33398 15.8905 2.50222 16.3998C2.83331 17.402 3.6195 18.1882 4.62171 18.5193C5.13098 18.6875 5.76115 18.6875 7.02148 18.6875H9.3937C9.86152 18.6875 10.0954 18.6875 10.3116 18.7467C10.5031 18.7992 10.6837 18.8854 10.8448 19.0014C11.0268 19.1323 11.1738 19.3143 11.4678 19.6781Z" stroke="#532D6A" stroke-width="3.5" stroke-linecap="round" stroke-linejoin="round"/>
</svg>
