<svg width="21" height="13" viewBox="0 0 21 13" fill="none" xmlns="http://www.w3.org/2000/svg">
<path d="M20.004 12.881H17.722C16.859 12.881 16.599 12.182 15.052 10.634C13.7 9.33097 13.129 9.16897 12.787 9.16897C12.314 9.16897 12.185 9.29897 12.185 9.94997V12.002C12.185 12.557 12.005 12.882 10.555 12.882C9.14829 12.7875 7.78416 12.3601 6.57497 11.6351C5.36578 10.9101 4.34612 9.90824 3.6 8.71197C1.82839 6.50699 0.595707 3.91905 0 1.15397C0 0.811967 0.13 0.501967 0.782 0.501967H3.062C3.648 0.501967 3.859 0.762967 4.089 1.36597C5.196 4.62397 7.085 7.45797 7.852 7.45797C8.146 7.45797 8.274 7.32797 8.274 6.59497V3.23897C8.177 1.70797 7.364 1.57897 7.364 1.02497C7.37428 0.878808 7.44114 0.742416 7.55037 0.64476C7.65961 0.547105 7.80261 0.49588 7.949 0.501967H11.533C12.023 0.501967 12.185 0.745967 12.185 1.33197V5.86197C12.185 6.35097 12.395 6.51297 12.543 6.51297C12.837 6.51297 13.063 6.35097 13.602 5.81297C14.7574 4.40395 15.7013 2.83413 16.404 1.15297C16.4759 0.95112 16.6119 0.778342 16.7912 0.660984C16.9705 0.543627 17.1832 0.488133 17.397 0.502967H19.678C20.362 0.502967 20.507 0.844967 20.362 1.33297C19.5324 3.19138 18.5058 4.95547 17.3 6.59497C17.054 6.96997 16.956 7.16497 17.3 7.60497C17.526 7.94697 18.326 8.61497 18.863 9.24997C19.645 10.03 20.294 10.932 20.785 11.92C20.981 12.556 20.655 12.881 20.004 12.881Z" fill="#532D6A"/>
</svg>
