<svg width="42" height="44" viewBox="0 0 42 44" fill="none" xmlns="http://www.w3.org/2000/svg">
<path d="M31.5108 3.89654C31.8857 3.39329 32.438 3.06976 32.9017 2.65895C34.2327 1.47958 35.1342 0.232566 37.0436 0.0346887C39.2249 -0.237467 41.5802 2.18495 41.5133 4.32216C41.4571 6.111 39.9564 7.24209 38.7989 8.41303C37.9116 9.31087 37.0359 10.2227 36.1153 11.0868C36.1381 12.0405 36.2504 12.9883 36.3279 13.9385C36.5138 16.2177 36.6647 18.5276 36.7199 20.8134C36.8438 25.9415 37.1724 35.1844 35.0757 39.4358C34.2569 41.0962 33.0451 42.6533 31.2275 43.2632C29.9953 43.6767 28.5051 43.4863 28.0626 42.0785C27.457 40.1513 29.0109 38.6663 29.8131 37.1014C23.9523 36.0669 17.8289 36.3789 12.0638 37.8052C10.4153 38.2725 8.78917 38.7187 7.17517 39.3088C4.20218 40.396 4.38237 41.0186 3.30031 37.722C1.64994 32.694 0.939406 25.5475 0.914562 20.1L0.910156 13.3264C0.910437 11.2461 1.05378 9.19818 1.23303 7.12434C1.28309 6.54553 1.17481 5.29219 1.66747 4.87069C2.22528 4.3936 7.26864 3.9976 8.11332 3.92598C13.4557 3.47279 18.8255 3.31032 24.1854 3.43042C26.6281 3.48507 29.0725 3.74532 31.5108 3.89654ZM37.0134 1.55692C36.0933 1.66333 35.5348 2.20726 34.89 2.81907L33.8917 3.75882C35.0728 4.88944 36.1831 6.08035 37.3214 7.25269L37.6037 7.55212C38.4012 6.66253 40.085 5.37132 40.0285 4.18595C39.9639 2.82864 38.3882 1.38311 37.0134 1.55692ZM32.696 4.74338C32.2039 5.28394 31.6509 5.74988 31.1014 6.22997C32.4271 7.51547 33.7329 8.82665 34.9779 10.1904C35.4585 9.61799 36.0223 9.12299 36.522 8.56846C36.271 8.25675 35.9724 7.97644 35.6895 7.69359L34.4263 6.43181C33.8763 5.88235 33.3121 5.20716 32.696 4.74338ZM18.2387 4.92929C16.8474 4.92151 15.6304 4.9951 14.252 5.04994C10.3103 5.2066 6.69948 5.60757 2.81449 6.03769C1.93606 15.3798 2.02146 27.9163 4.59124 36.8585C4.75071 37.4137 4.96783 37.9566 5.11615 38.5132C13.3942 35.2515 20.9088 34.3759 29.7891 35.5777C30.323 35.6499 31.0002 35.5876 31.2406 36.1839C31.9434 37.927 28.9173 40.0785 29.4411 41.5434C29.6659 42.1722 30.5735 41.9107 31.0146 41.7248C35.5996 39.7935 35.2919 30.0786 35.2922 26.124C35.2926 21.8087 35.0652 17.7269 34.804 13.4137C34.7847 13.0975 34.7422 12.7746 34.7356 12.4587C34.2652 12.9758 33.8209 13.5167 33.3558 14.0387L30.4144 17.3093C27.9762 19.9721 25.515 22.6081 23.0219 25.2196C22.0899 26.1959 21.0761 27.0901 20.171 28.0933C20.9523 28.0034 21.7561 28.0383 22.5417 28.0146C24.185 27.9649 25.7294 27.9273 27.3805 27.9133C28.3929 27.9046 29.4172 27.7676 30.4299 27.8278C31.3439 27.8821 31.4286 29.1525 30.5399 29.283C29.6043 29.4205 28.5733 29.3081 27.6248 29.3405L18.6559 29.5797C18.2662 29.8039 17.9642 30.1598 17.6329 30.4576C16.3288 31.6299 15.5119 32.1225 13.8955 32.7921C12.7677 33.2592 8.15664 34.977 6.95008 34.9683C5.90852 34.4286 6.70426 33.1783 6.9542 32.362C7.58439 30.3031 8.42026 27.2552 9.51929 25.3992L9.55163 25.3454C8.98979 25.3531 7.61983 25.4693 7.16467 25.3955C6.56702 25.2986 5.87383 23.9805 7.91748 23.8438C8.91123 23.7772 9.9181 23.8687 10.9071 23.7833C16.482 17.9393 22.2048 12.2336 28.2524 6.8761C28.8494 6.34716 29.4394 5.802 30.0638 5.30579C26.1402 4.80563 22.1853 4.86948 18.2387 4.92929ZM29.9715 7.31128C29.5125 7.77066 29.0198 8.19843 28.5389 8.63456L26.0402 10.9043C21.2295 15.3233 16.7921 19.8209 12.25 24.51C11.8169 24.9571 11.4139 25.4358 10.9754 25.877C12.6309 27.0114 14.2658 28.2563 15.1677 30.1099L15.3175 30.4209C16.986 29.1293 18.5043 27.5996 20.0061 26.1187C23.0384 23.1291 25.9404 20.0058 28.8014 16.8526L31.9807 13.3127C32.6097 12.6177 33.2932 11.9495 33.8718 11.2132C33.4166 10.6795 30.3742 7.49803 29.9715 7.31128ZM10.2685 27.2333C10.0682 27.7903 9.89223 28.364 9.65973 28.908C10.2879 29.3502 12.9351 31.9571 10.947 32.0337C10.4459 32.0531 9.68148 30.7895 9.0946 30.3006C8.98267 30.7725 8.31114 32.8134 8.32276 33.0914C10.2353 32.6664 12.2758 31.9487 14.0108 31.0473C13.0981 29.4313 11.8519 28.1951 10.2685 27.2333Z" fill="#847F87"/>
</svg>
