<svg width="24" height="24" viewBox="0 0 18 19" fill="none" xmlns="http://www.w3.org/2000/svg">
<path d="M8.93521 7.80007V11.2511H13.7272C13.2812 13.4441 11.4142 14.7041 8.93521 14.7041C6.04776 14.6643 3.72787 12.3123 3.72787 9.42457C3.72787 6.53684 6.04776 4.18481 8.93521 4.14507C10.1354 4.14363 11.2987 4.56014 12.2252 5.32307L14.8252 2.72307C11.8428 0.101139 7.48721 -0.236093 4.13677 1.89552C0.786319 4.02712 -0.753767 8.11528 0.357458 11.9277C1.46868 15.7401 4.96416 18.3605 8.93521 18.3581C13.4022 18.3581 17.4642 15.1091 17.4642 9.42407C17.4573 8.87671 17.3902 8.33177 17.2642 7.79907L8.93521 7.80007Z" fill="#532D6A"/>
</svg>
