<svg width="16" height="21" viewBox="0 0 16 21" fill="none" xmlns="http://www.w3.org/2000/svg">
<path d="M1 18.0002V4.7002C1 3.58009 1 3.01962 1.21799 2.5918C1.40973 2.21547 1.71547 1.90973 2.0918 1.71799C2.51962 1.5 3.08009 1.5 4.2002 1.5H13.4002C13.9602 1.5 14.2407 1.5 14.4546 1.60899C14.6427 1.70487 14.7948 1.85774 14.8906 2.0459C14.9996 2.25981 15 2.54005 15 3.1001V14.9001C15 15.4601 14.9996 15.7398 14.8906 15.9537C14.7948 16.1419 14.6429 16.2952 14.4548 16.3911C14.2411 16.5 13.961 16.5 13.402 16.5H3.25C2.00736 16.5 1 17.5074 1 18.75C1 19.1642 1.33579 19.5 1.75 19.5H12.402C12.961 19.5 13.2411 19.5 13.4548 19.3911C13.6429 19.2952 13.7948 19.142 13.8906 18.9538C13.9996 18.7399 14 18.4601 14 17.9V16.5" stroke="#532D6A" stroke-opacity="0.6" stroke-width="2" stroke-linecap="round" stroke-linejoin="round"/>
</svg>
