<svg width="50" height="24" viewBox="0 0 50 24" fill="none" xmlns="http://www.w3.org/2000/svg">
<path d="M38 20.5L37.5143 21.3742C37.8164 21.542 38.1836 21.542 38.4857 21.3742L38 20.5ZM38 20.5C38.4857 21.3742 38.4859 21.374 38.4862 21.3739L38.4869 21.3735L38.489 21.3723L38.4957 21.3686L38.5186 21.3557C38.5381 21.3446 38.5658 21.3288 38.6014 21.3083C38.6724 21.2672 38.7745 21.2074 38.9032 21.1298C39.1606 20.9745 39.525 20.7477 39.961 20.4571C40.8309 19.8771 41.9953 19.0365 43.1644 17.9974C45.4384 15.976 48 12.9667 48 9.49985C48 7.79979 47.5007 6.40549 46.6402 5.38257C45.7826 4.36306 44.6164 3.77319 43.3926 3.59685C41.4628 3.31876 39.3734 4.06438 38 5.76326C36.6266 4.06438 34.5372 3.31876 32.6074 3.59685C31.3836 3.77319 30.2174 4.36306 29.3598 5.38257C28.4993 6.40549 28 7.79979 28 9.49985C28 12.9667 30.5616 15.976 32.8356 17.9974C34.0047 19.0365 35.1691 19.8771 36.039 20.4571C36.475 20.7477 36.8394 20.9745 37.0968 21.1298C37.2255 21.2074 37.3276 21.2672 37.3986 21.3083C37.4342 21.3288 37.4619 21.3446 37.4814 21.3557L37.5043 21.3686L37.511 21.3723L37.5131 21.3735L37.5138 21.3739C37.5141 21.374 37.5143 21.3742 38 20.5Z" fill="#532D6A" stroke="#DFEBFF" stroke-width="2" stroke-linecap="round" stroke-linejoin="round"/>
<path d="M25 20.5L24.5143 21.3742C24.8164 21.542 25.1836 21.542 25.4857 21.3742L25 20.5ZM25 20.5C25.4857 21.3742 25.4859 21.374 25.4862 21.3739L25.4869 21.3735L25.489 21.3723L25.4957 21.3686L25.5186 21.3557C25.5381 21.3446 25.5658 21.3288 25.6014 21.3083C25.6724 21.2672 25.7745 21.2074 25.9032 21.1298C26.1606 20.9745 26.525 20.7477 26.961 20.4571C27.8309 19.8771 28.9953 19.0365 30.1644 17.9974C32.4384 15.976 35 12.9667 35 9.49985C35 7.79979 34.5007 6.40549 33.6402 5.38257C32.7826 4.36306 31.6164 3.77319 30.3926 3.59685C28.4628 3.31876 26.3734 4.06438 25 5.76326C23.6266 4.06438 21.5372 3.31876 19.6074 3.59685C18.3836 3.77319 17.2174 4.36306 16.3598 5.38257C15.4993 6.40549 15 7.79979 15 9.49985C15 12.9667 17.5616 15.976 19.8356 17.9974C21.0047 19.0365 22.1691 19.8771 23.039 20.4571C23.475 20.7477 23.8394 20.9745 24.0968 21.1298C24.2255 21.2074 24.3276 21.2672 24.3986 21.3083C24.4342 21.3288 24.4619 21.3446 24.4814 21.3557L24.5043 21.3686L24.511 21.3723L24.5131 21.3735L24.5138 21.3739C24.5141 21.374 24.5143 21.3742 25 20.5Z" fill="#532D6A" stroke="#E0ECFF" stroke-width="2" stroke-linecap="round" stroke-linejoin="round"/>
<path d="M12 20.5L11.5143 21.3742C11.8164 21.542 12.1836 21.542 12.4857 21.3742L12 20.5ZM12 20.5C12.4857 21.3742 12.4859 21.374 12.4862 21.3739L12.4869 21.3735L12.489 21.3723L12.4957 21.3686L12.5186 21.3557C12.5381 21.3446 12.5658 21.3288 12.6014 21.3083C12.6724 21.2672 12.7745 21.2074 12.9032 21.1298C13.1606 20.9745 13.525 20.7477 13.961 20.4571C14.8309 19.8771 15.9953 19.0365 17.1644 17.9974C19.4384 15.976 22 12.9667 22 9.49985C22 7.79979 21.5007 6.40549 20.6402 5.38257C19.7826 4.36306 18.6164 3.77319 17.3926 3.59685C15.4628 3.31876 13.3734 4.06438 12 5.76326C10.6266 4.06438 8.53723 3.31876 6.60737 3.59685C5.38364 3.77319 4.21737 4.36306 3.35975 5.38257C2.49926 6.40549 2 7.79979 2 9.49985C2 12.9667 4.56164 15.976 6.83563 17.9974C8.00469 19.0365 9.16909 19.8771 10.039 20.4571C10.475 20.7477 10.8394 20.9745 11.0968 21.1298C11.2255 21.2074 11.3276 21.2672 11.3986 21.3083C11.4342 21.3288 11.4619 21.3446 11.4814 21.3557L11.5043 21.3686L11.511 21.3723L11.5131 21.3735L11.5138 21.3739C11.5141 21.374 11.5143 21.3742 12 20.5Z" fill="#532D6A" stroke="#E0ECFF" stroke-width="2" stroke-linecap="round" stroke-linejoin="round"/>
</svg>
