<svg width="22" height="21" viewBox="0 0 22 21" fill="none" xmlns="http://www.w3.org/2000/svg">
<path d="M11 18.5001L10.5143 19.3742C10.8164 19.542 11.1836 19.542 11.4857 19.3742L11 18.5001ZM11 18.5001C11.4857 19.3742 11.4859 19.3741 11.4862 19.3739L11.4869 19.3735L11.489 19.3724L11.4957 19.3686L11.5186 19.3557C11.5381 19.3447 11.5658 19.3289 11.6014 19.3083C11.6724 19.2673 11.7745 19.2075 11.9032 19.1298C12.1606 18.9746 12.525 18.7478 12.961 18.4571C13.8309 17.8771 14.9953 17.0366 16.1644 15.9974C18.4384 13.976 21 10.9667 21 7.49991C21 5.79985 20.5007 4.40556 19.6402 3.38263C18.7826 2.36313 17.6164 1.77325 16.3926 1.59691C14.4628 1.31882 12.3734 2.06445 11 3.76332C9.62663 2.06445 7.53723 1.31882 5.60737 1.59691C4.38364 1.77325 3.21737 2.36313 2.35975 3.38263C1.49926 4.40556 1 5.79985 1 7.49991C1 10.9667 3.56164 13.976 5.83563 15.9974C7.00469 17.0366 8.16909 17.8771 9.03904 18.4571C9.47499 18.7478 9.83944 18.9746 10.0968 19.1298C10.2255 19.2075 10.3276 19.2673 10.3986 19.3083C10.4342 19.3289 10.4619 19.3447 10.4814 19.3557L10.5043 19.3686L10.511 19.3724L10.5131 19.3735L10.5138 19.3739C10.5141 19.3741 10.5143 19.3742 11 18.5001Z" fill="#B2A0BC" stroke="#DFEBFF" stroke-width="2" stroke-linecap="round" stroke-linejoin="round"/>
</svg>
