<svg width="34" height="45" viewBox="0 0 34 45" fill="none" xmlns="http://www.w3.org/2000/svg">
<path d="M17 28.6667C15.0556 28.6667 13.4028 27.9862 12.0417 26.6251C10.6806 25.264 10 23.6112 10 21.6667V7.66675C10 5.7223 10.6806 4.06953 12.0417 2.70841C13.4028 1.3473 15.0556 0.666748 17 0.666748C18.9445 0.666748 20.5972 1.3473 21.9584 2.70841C23.3195 4.06953 24 5.7223 24 7.66675V21.6667C24 23.6112 23.3195 25.264 21.9584 26.6251C20.5972 27.9862 18.9445 28.6667 17 28.6667ZM14.6667 45.0001V37.8251C10.6222 37.2806 7.2778 35.4723 4.63335 32.4001C1.98891 29.3279 0.666687 25.7501 0.666687 21.6667H5.33335C5.33335 24.8945 6.47085 27.6459 8.74585 29.9209C11.0209 32.1959 13.7722 33.3334 17 33.3334C20.2278 33.3334 22.9792 32.1959 25.2542 29.9209C27.5292 27.6459 28.6667 24.8945 28.6667 21.6667H33.3334C33.3334 25.7501 32.0111 29.3279 29.3667 32.4001C26.7222 35.4723 23.3778 37.2806 19.3334 37.8251V45.0001H14.6667Z" fill="#532D6A"/>
</svg>
